<svg version="1.1" id="Layer_1" xmlns="http://www.w3.org/2000/svg" xmlns:xlink="http://www.w3.org/1999/xlink" x="0px" y="0px"
	 width="180px" height="232px" viewBox="0 0 180 232" enable-background="new 0 0 180 232" xml:space="preserve">
<path fill="#2E4E98" d="M90.67,228.14c0,0-4.999-5-12.667-6c-12.667-2-32-6.667-44.666-14.667
	c-41.333-28-26.001-65.833-24.667-69.333s8.667-16.334,8.667-41.334c1.334-32.667-12-47.999-12-47.999l31.333-40
	c0,0,15.333,16.166,53.833,16.166c0,0,1.158-0.013,1.572-0.016c37.583-0.346,52.584-16.162,52.584-16.162l31.333,40
	c0,0-13.334,15.333-12,48c0,23.011,8.667,41.334,8.667,41.334s16.666,41.333-24.667,69.333c-12.666,8-31.999,12.667-44.666,14.667
	c-7.668,1-12.667,6-12.667,6L90.67,228.14z"/>
<path fill="#FFFFFF" d="M90.357,56.651c-25.909-0.74-39.52-6.865-39.52-6.865c0.004,35.322,0.025,158.33,0.163,158.198
	c-4.159-1.668-8.096-3.577-11.522-5.741c-39.481-26.746-24.836-62.885-23.562-66.229c1.274-3.343,8.279-15.603,8.279-39.482
	c1.274-31.204-10.357-48.725-10.357-48.725l24-29.334c0,0,17.778,12.304,51.643,13.323l-0.008-0.011
	c34.911-0.67,53.514-13.312,53.514-13.312l24,29.334c0,0-11.632,17.521-10.357,48.725c0,23.88,7.005,36.14,8.279,39.482
	c1.273,3.344,15.919,39.482-23.562,66.229c-3.427,2.164-7.363,4.073-11.522,5.741c0.138,0.132,0.159-122.876,0.163-158.198
	c0,0-13.955,6.088-39.623,6.875L90.357,56.651z"/>
<circle fill="#272525" cx="90.17" cy="135.473" r="31.333"/>
<path fill="#FFFFFF" d="M117.535,130.072c0.177-0.266,0.344,0.193,0.302,0.359c0,0-2.583,3.834-4.583,7.542
	c0,0-0.75,11.938-1.375,13.25c-0.508,1.066,0.812-6.375,0.438-12.625c-0.294-1.263-1.867-2.824-2.5-3.75
	c-5.771-6.624-10.375-10-24.488-15.567c-0.08-0.02-0.715-0.322-0.824-0.682c-0.128-0.42,18.25,4.374,28.375,18.562
	C112.878,137.161,115.838,132.621,117.535,130.072z"/>
<path fill="#FFFFFF" d="M64.579,122.337c0.044-0.313,0.342-1.286,0.728-1.286s-0.511,0.588-0.22,2.505
	c1,7.208,3.417,11.875,18.334,17.292c0,0,3.875,0.834,3.125,1.25s-3.084-0.584-3.084-0.584s0.875,5.958-0.875,13.125
	c0,0-0.749,1.751-0.499-0.499s2.083-10.333,0.5-12.75c0,0-8.459-2.584-13.209-7.084c0,0-5.667,4.792-7.042,6.917
	c0,0-0.543,0.237,0.459-1.375c0.958-1.542,6.333-5.792,6.333-5.792S63.711,128.556,64.579,122.337z"/>
<path fill="#FFFFFF" d="M107.717,115.439l-5.371,6.836c0,0-4.396-10.578-13.021-10.741s-10.253,8.788-3.255,13.019
	c6.999,4.231,14.688,7.69,18.736,10.944c4.048,3.255,6.719,11.564,3.193,18.432c-1.545,3.011-5.33,9.033-19.163,9.358
	c-8.042,0.188-14.729-5.696-18.187-10.416c-2.158-2.944-3.529-1.813-3.946-1.465c-0.035,0.029,6.713-8.056,6.713-8.056
	s0.847,7.345,3.702,9.846c2.787,2.441,5.535,7.649,16.438,5.534c10.903-2.116,5.289-15.503-4.639-19.083S71.749,132.04,71.261,122.6
	c-0.488-9.44,7.486-13.996,12.856-14.484c5.371-0.488,12.368-0.326,17.902,6.184L107.717,115.439z"/>
<path fill="#FFFFFF" d="M104.063,80.348c0-19.083-12.995-19.5-14.184-19.5s-14.084,0.417-14.084,19.5s12.048,20.333,14.167,20.333
	S104.063,99.431,104.063,80.348z"/>
<path fill="#2E4E98" d="M93.919,80.536c-0.534-8.674-1.127-12.055-2.062-13.812c-0.728-1.367-1.375-1.938-1.934-1.938
	c-2.941,0-4.879,0.175-4.879,15.625c0,8.688,2.158,15.312,4.875,15.938C92.51,96.944,94.669,92.723,93.919,80.536z"/>
<path fill="#FFFFFF" d="M102.002,172.224c0,0-3.917,7.666-4,9.083s-1.416-0.166-1.833-1.583s-2.667-6.833-6.5-4.5
	s-3.5,15.417-3.5,15.417s-0.249,16.25,5.917,16.333s5.833-6.583,5.833-6.583s0.501-1.834,0.917-0.584s3.917,8.667,3.5,9.167
	s-0.804-0.237-1.791-0.313c-2.438-0.188-3.98,0.856-6.709,1.563s-15.75,0.334-16.917-13.333s5.417-21.5,5.417-21.5
	s4.833-5.751,10.833-4.084s3.667,1.75,5.167,1.5s1-1.167,1.75-1.25S102.002,172.224,102.002,172.224z"/>
<g>
	<path fill="#272525" d="M26.257,176.057v-16.121h-2.689v-2.205c0.758-0.091,1.479-0.376,2.163-0.859
		c0.686-0.487,1.179-1.073,1.479-1.764h2.206v20.949H26.257z"/>
	<path fill="#272525" d="M36.883,154.842c1.381,0,2.526,0.499,3.44,1.502c0.881,0.96,1.32,2.127,1.32,3.51v11.426
		c0,1.392-0.453,2.573-1.36,3.542c-0.91,0.971-2.043,1.452-3.4,1.452c-1.394,0-2.54-0.494-3.442-1.485
		c-0.88-0.957-1.32-2.129-1.32-3.509v-0.45h3.275v0.518c0,0.513,0.136,0.942,0.41,1.286c0.271,0.345,0.658,0.517,1.16,0.517
		c0.501,0,0.888-0.172,1.161-0.517c0.272-0.344,0.41-0.773,0.41-1.286v-4.192c-0.735,0.655-1.533,0.983-2.39,0.983
		c-1.382,0-2.418-0.483-3.108-1.453c-0.612-0.846-0.919-2.026-0.919-3.541v-3.593h0.018c0.043-0.969,0.319-1.84,0.826-2.615
		c0.508-0.773,1.195-1.35,2.063-1.727C35.597,154.964,36.213,154.842,36.883,154.842z M38.538,159.886
		c0-0.512-0.138-0.944-0.41-1.297c-0.273-0.348-0.66-0.523-1.161-0.523c-0.502,0-0.889,0.176-1.16,0.523
		c-0.274,0.353-0.41,0.785-0.41,1.297v3.877c0,0.612,0.222,1.118,0.668,1.52c0.201,0.189,0.496,0.282,0.885,0.282
		c0.802,0,1.303-0.422,1.505-1.269c0.055-0.256,0.084-0.449,0.084-0.584V159.886z"/>
</g>
<g>
	<path fill="#272525" d="M140.973,173.056c1.453,0,2.182-0.674,2.182-2.028v-1.239c0-2.156-1.129-3.232-3.388-3.232v-2.717
		c1.218,0,2.118-0.34,2.7-1.021c0.536-0.614,0.805-1.476,0.805-2.581v-0.487c0-1.374-0.603-2.06-1.812-2.06
		c-0.67,0-1.163,0.255-1.476,0.767c-0.234,0.391-0.352,0.896-0.352,1.517v0.552h-3.104v-0.487c0-1.498,0.381-2.717,1.143-3.656
		c0.86-1.072,2.073-1.611,3.641-1.611c1.485,0,2.677,0.504,3.572,1.511c0.804,0.905,1.207,2.035,1.207,3.39v0.887
		c0,1.309-0.392,2.439-1.174,3.39c-0.338,0.403-0.727,0.743-1.175,1.024c0.939,0.524,1.666,1.323,2.182,2.398
		c0.267,0.548,0.401,1.213,0.401,1.995v1.66c0,1.556-0.53,2.829-1.594,3.826c-1.019,0.96-2.243,1.441-3.673,1.441
		c-1.399,0-2.583-0.49-3.556-1.477c-0.975-0.981-1.461-2.162-1.461-3.538v-0.521l3.02-0.234l0.068,0.738
		c0.043,0.526,0.231,0.957,0.561,1.291C140.02,172.889,140.449,173.056,140.973,173.056z"/>
	<path fill="#272525" d="M159.292,171.279c0,1.397-0.492,2.582-1.477,3.556c-0.983,0.972-2.17,1.459-3.556,1.459h-0.251
		c-1.4,0-2.584-0.49-3.557-1.477c-0.975-0.981-1.461-2.162-1.461-3.538v-1.913c0-1.286,0.431-2.411,1.292-3.371
		c0.369-0.414,0.8-0.756,1.291-1.022c-0.849-0.437-1.508-1.163-1.979-2.182c-0.234-0.525-0.352-1.187-0.352-1.98v-1.139
		c0-1.366,0.404-2.496,1.209-3.39c0.894-1.007,2.08-1.511,3.557-1.511h0.251c1.486,0,2.677,0.504,3.573,1.511
		c0.804,0.905,1.207,2.035,1.207,3.39v1.139c0,1.31-0.392,2.394-1.174,3.254c-0.347,0.381-0.732,0.684-1.157,0.908
		c0.94,0.524,1.667,1.323,2.18,2.398c0.269,0.548,0.403,1.213,0.403,1.995V171.279z M156.221,160.534
		c-0.022-1.438-0.476-2.341-1.358-2.71c-0.201-0.089-0.441-0.133-0.721-0.133c-0.55,0-0.995,0.15-1.344,0.452
		c-0.278,0.245-0.477,0.559-0.593,0.945c-0.12,0.384-0.166,0.867-0.145,1.445c0.034,0.915,0.179,1.572,0.436,1.975
		c0.337,0.533,0.884,0.803,1.646,0.803c0.759,0,1.313-0.285,1.661-0.854C156.093,161.977,156.231,161.337,156.221,160.534z
		 M156.121,169.785c0-1.251-0.284-2.092-0.856-2.516c-0.267-0.202-0.642-0.303-1.122-0.303c-0.841,0-1.411,0.357-1.713,1.074
		c-0.179,0.437-0.267,1.018-0.267,1.744v1.007c0,0.694,0.211,1.253,0.636,1.678c0.357,0.357,0.806,0.549,1.344,0.57
		c0.859-0.045,1.459-0.47,1.793-1.275c0.124-0.269,0.186-0.592,0.186-0.973V169.785z"/>
</g>
<g>
	<g>
		<path fill="#272525" d="M42.165,25.137c1.137,0.485,1.948,1.265,2.452,2.361c0.503,1.096,0.56,2.19,0.139,3.286
			c-1.163,3.022-2.325,6.044-3.488,9.066c-0.424,1.103-1.239,1.869-2.465,2.274c-1.225,0.405-2.5,0.333-3.797-0.22
			c-1.308-0.559-2.245-1.435-2.792-2.6c-0.548-1.167-0.558-2.285-0.058-3.345c1.378-2.93,2.757-5.859,4.136-8.789
			c0.504-1.07,1.338-1.787,2.485-2.172C39.924,24.612,41.044,24.658,42.165,25.137z M41.973,29.614
			c0.162-0.392,0.15-0.79-0.029-1.187c-0.181-0.401-0.478-0.686-0.897-0.865c-0.418-0.179-0.834-0.199-1.254-0.055
			c-0.417,0.141-0.713,0.408-0.885,0.795c-1.316,2.968-2.632,5.936-3.948,8.904c-0.173,0.39-0.159,0.792,0.047,1.208
			c0.207,0.418,0.542,0.726,1.003,0.923c0.462,0.198,0.911,0.225,1.351,0.084c0.436-0.141,0.736-0.41,0.899-0.804
			C39.498,35.618,40.735,32.616,41.973,29.614z"/>
		<path fill="#272525" d="M52.713,29.079c1.167,0.376,2.038,1.076,2.634,2.12c0.595,1.043,0.749,2.127,0.43,3.257
			c-0.881,3.116-1.763,6.231-2.644,9.347c-0.322,1.138-1.061,1.976-2.237,2.493c-1.174,0.518-2.444,0.566-3.774,0.138
			c-1.342-0.433-2.345-1.216-2.987-2.323c-0.647-1.11-0.755-2.22-0.355-3.322c1.103-3.044,2.206-6.088,3.309-9.133
			c0.403-1.112,1.166-1.904,2.264-2.396C50.453,28.768,51.564,28.709,52.713,29.079z M52.919,33.551
			c0.125-0.405,0.081-0.8-0.133-1.177c-0.215-0.382-0.534-0.638-0.964-0.777c-0.429-0.138-0.842-0.12-1.242,0.064
			c-0.4,0.18-0.669,0.473-0.805,0.875c-1.038,3.076-2.076,6.153-3.113,9.229c-0.137,0.404-0.087,0.804,0.154,1.198
			c0.238,0.396,0.598,0.67,1.071,0.823c0.474,0.153,0.921,0.139,1.343-0.043c0.42-0.181,0.69-0.477,0.816-0.885
			C51.004,39.756,51.961,36.654,52.919,33.551z"/>
		<path fill="#272525" d="M65.59,46.314c-0.207,1.222-0.759,2.2-1.689,2.917c-0.612,0.49-1.405,0.765-2.375,0.812
			c-0.521,0.026-1.108-0.031-1.768-0.177c-1.212-0.27-2.16-0.764-2.826-1.463c-0.56-0.576-0.937-1.27-1.135-2.079
			c-0.195-0.808-0.2-1.678-0.023-2.61c0.958,0.188,1.918,0.365,2.878,0.532c-0.116,1.041,0.017,1.845,0.402,2.412
			c0.284,0.429,0.667,0.688,1.144,0.773c0.67,0.131,1.267-0.038,1.777-0.502c0.261-0.225,0.441-0.59,0.545-1.09
			c0.151-0.725-0.077-1.519-0.663-2.392c-0.477-0.619-1.186-1.546-2.099-2.795c-0.76-1.067-1.242-1.988-1.464-2.747
			c-0.229-0.852-0.225-1.711,0.002-2.583c0.409-1.568,1.276-2.607,2.572-3.146c0.796-0.321,1.69-0.366,2.689-0.143
			c0.962,0.215,1.741,0.596,2.348,1.153c0.473,0.435,0.82,0.975,1.045,1.624c0.226,0.65,0.301,1.364,0.229,2.138
			c-0.923-0.012-1.849-0.035-2.776-0.068c0.067-0.731-0.032-1.332-0.297-1.805c-0.195-0.34-0.527-0.563-1.003-0.669
			c-0.505-0.112-0.935,0.012-1.296,0.374c-0.295,0.292-0.503,0.688-0.623,1.196c-0.187,0.792-0.011,1.686,0.544,2.676
			c0.211,0.377,0.552,0.843,1.029,1.393c0.562,0.652,0.934,1.101,1.107,1.35c0.585,0.795,1.019,1.543,1.293,2.253
			c0.13,0.333,0.23,0.637,0.297,0.908C65.624,45.232,65.669,45.818,65.59,46.314z"/>
		<path fill="#272525" d="M72.406,36.628c-0.99-0.143-1.979-0.297-2.966-0.463c0.149-0.887,0.299-1.774,0.448-2.661
			c2.837,0.478,5.687,0.856,8.543,1.133c-0.087,0.896-0.174,1.791-0.261,2.686c-0.99-0.096-1.978-0.204-2.966-0.324
			c-0.605,4.995-1.211,9.99-1.817,14.985c-1.046-0.127-2.092-0.266-3.136-0.416C70.97,46.589,71.688,41.609,72.406,36.628z"/>
		<path fill="#272525" d="M79.239,52.57c0.467-5.917,0.935-11.835,1.402-17.752c2.609,0.206,5.223,0.329,7.837,0.368
			c-0.013,0.899-0.027,1.798-0.041,2.698c-1.733-0.026-3.466-0.088-5.197-0.186c-0.091,1.616-0.183,3.233-0.274,4.849
			c1.313,0.074,2.627,0.128,3.942,0.163c-0.023,0.898-0.047,1.797-0.07,2.696c-1.342-0.035-2.683-0.09-4.023-0.166
			c-0.091,1.616-0.183,3.232-0.274,4.848c1.903,0.107,3.807,0.175,5.711,0.204c-0.013,0.9-0.027,1.8-0.04,2.7
			C85.219,52.946,82.226,52.806,79.239,52.57z"/>
		<path fill="#272525" d="M94.717,35.135c1.533-0.055,2.681,0.289,3.46,1.064c0.68,0.678,1.076,1.655,1.168,2.939
			c0.062,0.86,0.123,1.719,0.184,2.579c0.091,1.254-0.354,2.357-1.362,3.289c0.887,2.542,1.817,5.074,2.79,7.598
			c-1.135,0.086-2.271,0.158-3.407,0.217c-0.752-2.199-1.474-4.403-2.166-6.613c-0.082,0.003-0.174,0.007-0.269,0.01
			c-0.577,0.021-1.154,0.038-1.731,0.051c0.052,2.234,0.103,4.468,0.154,6.701c-1.052,0.024-2.104,0.037-3.156,0.037
			c-0.003-5.931-0.005-11.862-0.008-17.793C91.822,35.213,93.27,35.187,94.717,35.135z M96.575,39.347
			c-0.052-1.031-0.612-1.516-1.684-1.476c-0.565,0.021-1.132,0.038-1.699,0.05c0.044,1.898,0.088,3.795,0.131,5.693
			c0.592-0.013,1.185-0.031,1.776-0.053c0.465-0.017,0.857-0.185,1.169-0.503c0.312-0.318,0.456-0.69,0.435-1.116
			C96.661,41.077,96.618,40.212,96.575,39.347z"/>
		<path fill="#272525" d="M105.912,44.549c0.294,2.497,0.589,4.993,0.883,7.489c-1.046,0.124-2.094,0.235-3.142,0.335
			c-0.562-5.904-1.125-11.809-1.688-17.713c0.916-0.087,1.831-0.185,2.745-0.292c0.295,2.501,0.59,5.001,0.885,7.502
			c1.171-0.138,2.34-0.292,3.508-0.462c-0.363-2.492-0.726-4.984-1.089-7.476c0.911-0.132,1.821-0.275,2.729-0.428
			c0.986,5.848,1.972,11.697,2.958,17.545c-1.04,0.175-2.081,0.339-3.124,0.49c-0.362-2.487-0.725-4.975-1.086-7.462
			C108.299,44.251,107.106,44.409,105.912,44.549z"/>
		<path fill="#272525" d="M117.389,31.961c1.188-0.269,2.29-0.109,3.333,0.486c1.04,0.596,1.723,1.451,2.023,2.585
			c0.827,3.131,1.655,6.261,2.482,9.392c0.303,1.143,0.095,2.24-0.651,3.283c-0.746,1.043-1.807,1.729-3.162,2.037
			c-1.369,0.31-2.621,0.144-3.73-0.482c-1.111-0.628-1.764-1.529-1.981-2.681c-0.602-3.182-1.203-6.363-1.806-9.545
			c-0.219-1.163,0.029-2.231,0.715-3.212C115.299,32.842,116.216,32.227,117.389,31.961z M119.835,35.707
			c-0.099-0.412-0.337-0.729-0.714-0.946c-0.376-0.22-0.779-0.278-1.218-0.179s-0.78,0.325-1.03,0.687
			c-0.248,0.357-0.33,0.747-0.242,1.162c0.674,3.176,1.347,6.353,2.021,9.528c0.089,0.417,0.334,0.736,0.738,0.954
			c0.405,0.219,0.851,0.273,1.334,0.165c0.483-0.109,0.858-0.349,1.127-0.72c0.27-0.37,0.352-0.762,0.252-1.177
			C121.347,42.022,120.591,38.865,119.835,35.707z"/>
		<path fill="#272525" d="M133.828,46.316c-1.342,0.436-2.608,0.392-3.771-0.121c-1.167-0.513-1.9-1.346-2.223-2.475
			c-1.26-4.41-2.519-8.819-3.778-13.229c0.873-0.249,1.744-0.509,2.613-0.778c1.354,4.373,2.709,8.745,4.063,13.117
			c0.126,0.406,0.397,0.701,0.823,0.881c0.426,0.178,0.878,0.191,1.351,0.038c0.474-0.153,0.829-0.429,1.065-0.821
			c0.235-0.394,0.281-0.792,0.146-1.195c-1.468-4.335-2.936-8.671-4.403-13.006c0.918-0.311,1.834-0.633,2.747-0.967
			c1.573,4.308,3.147,8.615,4.72,12.923c0.411,1.122,0.3,2.231-0.359,3.329C136.163,45.106,135.158,45.884,133.828,46.316z"/>
		<path fill="#272525" d="M138.355,28.358c-0.94,0.39-1.884,0.767-2.83,1.132c-0.324-0.839-0.647-1.678-0.972-2.517
			c2.72-1.05,5.411-2.201,8.069-3.451c0.383,0.813,0.767,1.627,1.149,2.441c-0.921,0.433-1.846,0.854-2.774,1.264
			c2.031,4.604,4.062,9.207,6.094,13.811c-0.983,0.434-1.971,0.856-2.961,1.266C142.206,37.655,140.28,33.007,138.355,28.358z"/>
	</g>
</g>
</svg>